<?xml version="1.0" encoding="iso-8859-1"?>
<!-- Generator: Adobe Illustrator 29.2.0, SVG Export Plug-In . SVG Version: 9.03 Build 55982)  -->
<svg version="1.1" id="Calque_1" xmlns="http://www.w3.org/2000/svg" xmlns:xlink="http://www.w3.org/1999/xlink" x="0px" y="0px"
	 viewBox="0 0 116.7 144.2" style="enable-background:new 0 0 116.7 144.2;" xml:space="preserve">
<style type="text/css">
	.st0{fill:#FFFFFF;}
</style>
<g>
	<polygon class="st0" points="112.9,41.4 112.9,126.5 116.5,126.5 116.5,45 	"/>
	<polygon class="st0" points="106.1,126.5 109.7,126.5 109.7,38.2 106.1,34.5 	"/>
	<polygon class="st0" points="99.2,126.5 102.8,126.5 102.8,31.3 99.2,27.7 	"/>
	<polygon class="st0" points="71.9,0.5 71.9,9.2 71.9,76.4 68.6,73.2 68.6,9.2 68.6,0.5 65,4.1 65,9.2 65,69.6 61.8,66.4 61.8,9.2 
		61.8,7.3 59.9,9.2 58.2,10.9 58.2,62.8 55,59.5 55,14.1 51.3,17.7 51.3,55.9 48.1,52.7 48.1,21 44.5,24.6 44.5,54 41.3,57.2 
		41.3,27.8 37.7,31.4 37.7,60.8 34.4,64.1 34.4,34.6 30.8,38.2 30.8,67.7 27.6,70.9 27.6,41.5 24,45.1 24,74.5 20.6,77.9 
		20.6,144.1 24.2,144.1 24.3,144.1 24.3,126.5 27.5,126.5 27.5,144.1 31.1,144.1 31.1,126.5 34.3,126.5 34.3,144.1 37.9,144.1 
		37.9,126.5 41.2,126.5 41.2,144.1 44.8,144.1 44.8,126.5 48,126.5 48,144.1 51.6,144.1 51.6,126.5 54.8,126.5 54.8,144.1 
		58.5,144.1 58.5,126.5 61.7,126.5 61.7,144.1 65.3,144.1 65.3,126.5 68.5,126.5 68.5,144.1 72.1,144.1 72.1,126.5 75.4,126.5 
		75.4,144.1 79,144.1 79,126.5 82.2,126.5 82.2,144.1 85.8,144.1 85.8,126.5 89,126.5 89,144.1 92.6,144.1 92.6,126.5 93.1,126.5 
		96,126.5 96,24.5 92.4,20.9 92.4,97 89.2,93.8 89.2,17.7 85.5,14.1 85.5,90.1 82.3,86.9 82.3,10.9 80.6,9.2 78.7,7.3 78.7,9.2 
		78.7,83.3 75.5,80.1 75.5,9.2 75.5,4.1 	"/>
	<polygon class="st0" points="13.8,126.7 17.4,126.7 17.4,81.1 13.8,84.7 	"/>
	<polygon class="st0" points="7,126.7 10.6,126.7 10.6,87.9 7,91.5 	"/>
	<polygon class="st0" points="0.1,126.7 3.7,126.7 3.7,94.8 0.1,98.4 	"/>
</g>
</svg>
